<svg width="20" height="20" viewBox="0 0 20 20" fill="none" xmlns="http://www.w3.org/2000/svg">
<path d="M15.4138 7.47688L16.8805 6.01997C18.7527 7.09286 19.9992 8.57551 19.9992 10.2185C19.9992 13.4985 15.0591 16.1501 10.0352 16.157C9.01291 16.1569 7.99338 16.0508 6.99325 15.8403L8.73396 14.1122C9.15842 14.1557 9.59285 14.1785 10.0323 14.1775H10.0343C9.62075 14.1775 9.22219 14.1151 8.84754 13.9993L10.8214 12.0377C11.2897 11.8377 11.6654 11.4646 11.8676 10.9994L13.8405 9.03871C14.0262 9.62971 14.0699 10.2557 13.9678 10.8665C13.8658 11.4773 13.621 12.0558 13.2531 12.5556C12.8852 13.0553 12.4044 13.4624 11.8493 13.7441C11.2943 14.0258 10.6804 14.1742 10.0572 14.1775C14.2869 14.1627 18.0064 12.0159 18.0064 10.2185C18.0064 9.28516 16.9881 8.25285 15.4138 7.47688ZM6.14532 11.0845C6.01474 10.5059 6.01666 9.90558 6.15096 9.32782C6.28526 8.75006 6.54849 8.20964 6.92122 7.74648C7.29395 7.28332 7.76666 6.90923 8.30444 6.65186C8.84222 6.39449 9.43133 6.2604 10.0283 6.25949C5.82548 6.24464 2.06408 8.41517 2.06408 10.2185C2.06408 11.1053 2.96482 12.0763 4.38269 12.8354L2.92995 14.2765C1.2012 13.2155 0.0712891 11.7872 0.0712891 10.2185C0.0712891 6.93846 5.03733 4.26316 10.0352 4.27999C10.946 4.28296 11.8557 4.37302 12.7345 4.5393L10.9639 6.2971C10.6749 6.27533 10.382 6.26246 10.0871 6.25949C10.368 6.26345 10.6421 6.29611 10.9071 6.35451L6.14432 11.0845H6.14532ZM19.0945 1.02074C19.2813 1.20634 19.3862 1.45804 19.3862 1.72049C19.3862 1.98294 19.2813 2.23464 19.0945 2.42024L2.18564 19.2163C2.09379 19.3109 1.9839 19.3864 1.86237 19.4383C1.74085 19.4903 1.61012 19.5177 1.47782 19.5189C1.34552 19.5202 1.2143 19.4952 1.09181 19.4455C0.969326 19.3959 0.858026 19.3224 0.764406 19.2296C0.670786 19.1367 0.596723 19.0263 0.546537 18.9047C0.49635 18.7831 0.471047 18.6527 0.472102 18.5213C0.473157 18.3899 0.50055 18.26 0.552682 18.1392C0.604814 18.0184 0.680642 17.9092 0.775741 17.8178L17.6846 1.02173C17.7771 0.929703 17.887 0.8567 18.008 0.806891C18.1289 0.757082 18.2586 0.731445 18.3895 0.731445C18.5205 0.731445 18.6501 0.757082 18.7711 0.806891C18.892 0.8567 19.0019 0.929703 19.0945 1.02173V1.02074Z" fill="#7C7C7C"/>
</svg>
