<svg width="162" height="48" viewBox="0 0 162 48" fill="none" xmlns="http://www.w3.org/2000/svg">
<path d="M149.099 3.39297e-05H12.908C12.4115 3.39297e-05 11.921 3.39298e-05 11.4259 0.00243393C11.0115 0.00483393 10.6003 0.0118059 10.1819 0.0176739C9.2728 0.0271561 8.36589 0.0980455 7.46899 0.229726C6.57336 0.364273 5.70578 0.617933 4.8956 0.982126C4.08641 1.3494 3.34704 1.82664 2.70429 2.39652C2.05817 2.9648 1.51958 3.62165 1.10923 4.34183C0.697744 5.06056 0.412419 5.83076 0.263109 6.62581C0.112379 7.41986 0.0312704 8.22306 0.0205099 9.02821C0.00794675 9.39613 0.00662003 9.76527 0 10.1332V37.8704C0.00662003 38.243 0.00794675 38.6039 0.0205099 38.9766C0.0312737 39.7817 0.112383 40.5849 0.263109 41.3789C0.412007 42.1744 0.697348 42.9451 1.10923 43.6641C1.51939 44.3819 2.05806 45.0361 2.70429 45.6012C3.3446 46.1737 4.08445 46.6512 4.8956 47.0157C5.70577 47.3808 6.57326 47.636 7.46899 47.7726C8.36604 47.9033 9.27286 47.9742 10.1819 47.9848C10.6003 47.993 11.0115 47.9976 11.4259 47.9976C11.921 48 12.4115 48 12.908 48H149.099C149.586 48 150.08 48 150.567 47.9976C150.979 47.9976 151.402 47.993 151.815 47.9848C152.722 47.9747 153.627 47.9038 154.522 47.7726C155.421 47.6351 156.292 47.3799 157.106 47.0157C157.916 46.651 158.655 46.1735 159.295 45.6012C159.94 45.0339 160.48 44.3802 160.895 43.6641C161.304 42.9445 161.586 42.174 161.733 41.3789C161.884 40.5848 161.968 39.7818 161.984 38.9766C161.989 38.6039 161.989 38.243 161.989 37.8704C162 37.4344 162 37.0008 162 36.5578V11.4434C162 11.0039 162 10.568 161.989 10.1332C161.989 9.76527 161.989 9.39613 161.984 9.02816C161.968 8.22294 161.884 7.41992 161.733 6.62576C161.586 5.83117 161.303 5.06104 160.895 4.34178C160.059 2.89827 158.734 1.72326 157.106 0.982018C156.292 0.618715 155.421 0.365122 154.522 0.229618C153.627 0.0973573 152.722 0.0264432 151.815 0.0175059C151.402 0.0116499 150.979 0.00461793 150.567 0.00227793C150.08 -0.00012207 149.586 -0.00012207 149.099 -0.00012207V3.39297e-05Z" fill="#A6A6A6"/>
<path d="M11.316 46.9537C10.9028 46.9537 10.4996 46.949 10.0896 46.9408C9.2404 46.931 8.39315 46.8656 7.55484 46.7451C6.77315 46.6259 6.01591 46.4043 5.30809 46.0874C4.60675 45.7732 3.96708 45.3613 3.41358 44.8673C2.85206 44.3791 2.38457 43.8129 2.02963 43.1911C1.67079 42.5653 1.42245 41.8945 1.29326 41.2021C1.15374 40.458 1.07826 39.7057 1.06746 38.9516C1.05886 38.6985 1.04761 37.8556 1.04761 37.8556V10.1292C1.04761 10.1292 1.0596 9.29931 1.06753 9.0555C1.07787 8.30256 1.15291 7.55141 1.29201 6.80855C1.42144 6.11423 1.66997 5.44148 2.02901 4.81361C2.38264 4.19226 2.84753 3.62564 3.40567 3.13572C3.96318 2.64115 4.6049 2.22704 5.30742 1.9085C6.01362 1.59269 6.76943 1.37262 7.54954 1.25564C8.3906 1.13389 9.24079 1.06807 10.093 1.05872L11.3166 1.04407H150.684L151.922 1.05931C152.767 1.06819 153.609 1.13343 154.442 1.25446C155.23 1.37291 155.994 1.59452 156.708 1.91202C158.116 2.55397 159.261 3.56959 159.983 4.81654C160.337 5.44008 160.581 6.10733 160.709 6.79566C160.85 7.54462 160.929 8.30167 160.945 9.06078C160.949 9.40069 160.949 9.76581 160.949 10.1292C160.96 10.5793 160.96 11.0077 160.96 11.4396V36.5592C160.96 36.9953 160.96 37.4208 160.949 37.8498C160.949 38.2401 160.949 38.5976 160.944 38.9656C160.928 39.7112 160.85 40.4547 160.712 41.1903C160.585 41.8877 160.338 42.5638 159.98 43.1947C159.622 43.8097 159.157 44.371 158.602 44.8579C158.048 45.3545 157.407 45.7689 156.704 46.0852C155.992 46.4044 155.23 46.6269 154.442 46.7451C153.604 46.8662 152.757 46.9317 151.908 46.9408C151.51 46.949 151.094 46.9537 150.691 46.9537L149.221 46.9561L11.316 46.9537Z" fill="black"/>
<path d="M39.3568 24.3609C39.3697 23.3593 39.6357 22.3773 40.1301 21.5061C40.6246 20.635 41.3313 19.903 42.1846 19.3784C41.6425 18.6042 40.9274 17.9671 40.096 17.5177C39.2646 17.0682 38.3399 16.8188 37.3952 16.7892C35.3801 16.5777 33.4266 17.995 32.3998 17.995C31.353 17.995 29.772 16.8102 28.0695 16.8452C26.9683 16.8808 25.8951 17.201 24.9545 17.7747C24.0138 18.3484 23.2378 19.1559 22.702 20.1187C20.3812 24.1368 22.1124 30.0421 24.3355 33.29C25.4478 34.8804 26.7477 36.6569 28.4486 36.5939C30.1131 36.5249 30.7348 35.5326 32.7439 35.5326C34.7344 35.5326 35.3177 36.5939 37.0531 36.5539C38.8392 36.5249 39.9645 34.9564 41.0377 33.3509C41.8369 32.2177 42.4519 30.9652 42.8598 29.6399C41.8222 29.201 40.9367 28.4664 40.3137 27.5277C39.6908 26.5889 39.358 25.4876 39.3568 24.3609Z" fill="white"/>
<path d="M36.0789 14.6531C37.0527 13.484 37.5325 11.9814 37.4163 10.4644C35.9285 10.6206 34.5542 11.3317 33.5672 12.4559C33.0846 13.0051 32.715 13.644 32.4795 14.3361C32.244 15.0283 32.1473 15.76 32.1947 16.4896C32.9389 16.4972 33.6751 16.3359 34.3479 16.0178C35.0207 15.6997 35.6125 15.2331 36.0789 14.6531Z" fill="white"/>
<path d="M60.3968 32.5675H54.7167L53.3526 36.5952H50.9468L56.3269 21.6936H58.8265L64.2065 36.5952H61.7597L60.3968 32.5675ZM55.305 30.7089H59.8074L57.5878 24.1721H57.5257L55.305 30.7089Z" fill="white"/>
<path d="M75.8257 31.1636C75.8257 34.5398 74.0187 36.7089 71.2917 36.7089C70.6009 36.7451 69.9139 36.5859 69.3094 36.2498C68.7048 35.9136 68.2072 35.414 67.8734 34.8081H67.8218V40.1894H65.5917V25.7308H67.7503V27.5378H67.7913C68.1405 26.9349 68.6465 26.4378 69.2557 26.0996C69.8649 25.7614 70.5543 25.5947 71.2507 25.6171C74.0081 25.6171 75.8257 27.7968 75.8257 31.1636ZM73.5335 31.1636C73.5335 28.964 72.3968 27.5179 70.6624 27.5179C68.9585 27.5179 67.8124 28.9945 67.8124 31.1636C67.8124 33.3527 68.9585 34.8187 70.6624 34.8187C72.3968 34.8187 73.5335 33.3831 73.5335 31.1636Z" fill="white"/>
<path d="M87.7835 31.1636C87.7835 34.5398 85.9764 36.7089 83.2495 36.7089C82.5587 36.745 81.8717 36.5859 81.2671 36.2498C80.6626 35.9136 80.1649 35.414 79.8311 34.8081H79.7795V40.1894H77.5494V25.7308H79.708V27.5378H79.749C80.0982 26.9349 80.6043 26.4378 81.2134 26.0996C81.8226 25.7614 82.512 25.5947 83.2084 25.6171C85.9659 25.6171 87.7835 27.7968 87.7835 31.1636ZM85.4913 31.1636C85.4913 28.964 84.3545 27.5179 82.6202 27.5179C80.9163 27.5179 79.7702 28.9945 79.7702 31.1636C79.7702 33.3527 80.9163 34.8187 82.6202 34.8187C84.3546 34.8187 85.4913 33.3831 85.4913 31.1636H85.4913Z" fill="white"/>
<path d="M95.6867 32.4433C95.8519 33.921 97.2875 34.8913 99.2492 34.8913C101.129 34.8913 102.481 33.921 102.481 32.5886C102.481 31.4319 101.666 30.7394 99.7343 30.2647L97.8031 29.7995C95.0667 29.1386 93.7964 27.8589 93.7964 25.7823C93.7964 23.2112 96.0371 21.4452 99.2187 21.4452C102.367 21.4452 104.526 23.2112 104.599 25.7823H102.348C102.213 24.2952 100.984 23.3975 99.187 23.3975C97.3905 23.3975 96.1612 24.3057 96.1612 25.6276C96.1612 26.6811 96.9464 27.3011 98.8671 27.7756L100.509 28.1787C103.566 28.9018 104.837 30.13 104.837 32.3096C104.837 35.0975 102.616 36.8436 99.0839 36.8436C95.7792 36.8436 93.548 35.1385 93.4038 32.4432L95.6867 32.4433Z" fill="white"/>
<path d="M109.65 23.1597V25.7308H111.716V27.4968H109.65V33.4862C109.65 34.4167 110.063 34.8503 110.971 34.8503C111.217 34.846 111.462 34.8288 111.705 34.7987V36.5542C111.297 36.6305 110.882 36.665 110.466 36.6573C108.267 36.6573 107.409 35.8311 107.409 33.7241V27.4968H105.829V25.7308H107.409V23.1597H109.65Z" fill="white"/>
<path d="M112.912 31.1636C112.912 27.7452 114.925 25.5972 118.065 25.5972C121.215 25.5972 123.219 27.7452 123.219 31.1636C123.219 34.5913 121.225 36.73 118.065 36.73C114.905 36.73 112.912 34.5913 112.912 31.1636ZM120.946 31.1636C120.946 28.8187 119.872 27.4347 118.065 27.4347C116.258 27.4347 115.184 28.8292 115.184 31.1636C115.184 33.5179 116.258 34.8913 118.065 34.8913C119.872 34.8913 120.946 33.5179 120.946 31.1636H120.946Z" fill="white"/>
<path d="M125.057 25.7308H127.184V27.58H127.236C127.38 27.0025 127.718 26.4921 128.194 26.1346C128.67 25.7771 129.254 25.5944 129.849 25.6171C130.106 25.6162 130.362 25.6441 130.613 25.7003V27.7863C130.289 27.6871 129.95 27.6416 129.611 27.6515C129.287 27.6384 128.964 27.6955 128.665 27.8189C128.365 27.9424 128.095 28.1293 127.874 28.3668C127.654 28.6042 127.487 28.8867 127.386 29.1947C127.284 29.5027 127.251 29.829 127.287 30.1511V36.5953H125.057L125.057 25.7308Z" fill="white"/>
<path d="M140.895 33.4042C140.595 35.3765 138.675 36.73 136.217 36.73C133.057 36.73 131.095 34.6124 131.095 31.2151C131.095 27.8073 133.067 25.5972 136.123 25.5972C139.129 25.5972 141.019 27.662 141.019 30.9562V31.7202H133.346V31.855C133.311 32.2548 133.361 32.6576 133.493 33.0366C133.625 33.4156 133.836 33.7622 134.113 34.0532C134.389 34.3443 134.724 34.5732 135.096 34.7248C135.468 34.8763 135.868 34.9471 136.269 34.9323C136.796 34.9817 137.325 34.8596 137.777 34.5843C138.229 34.309 138.58 33.8951 138.778 33.4042L140.895 33.4042ZM133.357 30.1616H138.788C138.808 29.8021 138.754 29.4423 138.628 29.1049C138.502 28.7674 138.308 28.4596 138.058 28.2007C137.808 27.9417 137.507 27.7373 137.174 27.6003C136.841 27.4632 136.483 27.3965 136.123 27.4042C135.76 27.402 135.4 27.4718 135.064 27.6095C134.728 27.7472 134.423 27.9501 134.165 28.2064C133.908 28.4628 133.704 28.7676 133.565 29.1031C133.427 29.4387 133.356 29.7985 133.357 30.1616V30.1616Z" fill="white"/>
<path d="M55.0255 10.4772C55.4931 10.4437 55.9622 10.5143 56.3992 10.684C56.8361 10.8538 57.2299 11.1183 57.5522 11.4587C57.8745 11.799 58.1173 12.2067 58.263 12.6522C58.4086 13.0977 58.4536 13.57 58.3947 14.035C58.3947 16.3225 57.1584 17.6374 55.0255 17.6374H52.4392V10.4772H55.0255ZM53.5513 16.6248H54.9013C55.2354 16.6448 55.5697 16.59 55.88 16.4645C56.1902 16.339 56.4686 16.1458 56.6948 15.8991C56.921 15.6525 57.0893 15.3585 57.1875 15.0385C57.2858 14.7186 57.3114 14.3807 57.2626 14.0496C57.3079 13.7198 57.2796 13.3841 57.1799 13.0665C57.0801 12.7489 56.9114 12.4573 56.6857 12.2126C56.46 11.9679 56.183 11.7761 55.8745 11.651C55.566 11.5259 55.2337 11.4706 54.9013 11.4891H53.5513V16.6248Z" fill="white"/>
<path d="M59.651 14.9332C59.617 14.5781 59.6576 14.2198 59.7702 13.8813C59.8828 13.5428 60.0649 13.2316 60.3049 12.9676C60.5448 12.7037 60.8373 12.4927 61.1635 12.3484C61.4897 12.2041 61.8425 12.1295 62.1992 12.1295C62.5559 12.1295 62.9087 12.2041 63.2349 12.3484C63.5612 12.4927 63.8536 12.7037 64.0935 12.9676C64.3335 13.2316 64.5156 13.5428 64.6282 13.8813C64.7408 14.2198 64.7814 14.5781 64.7475 14.9332C64.7821 15.2886 64.7419 15.6474 64.6296 15.9864C64.5173 16.3255 64.3353 16.6373 64.0953 16.9018C63.8553 17.1663 63.5627 17.3776 63.2361 17.5223C62.9096 17.6669 62.5564 17.7416 62.1992 17.7416C61.8421 17.7416 61.4889 17.6669 61.1623 17.5223C60.8358 17.3776 60.5431 17.1663 60.3031 16.9018C60.0631 16.6373 59.8811 16.3255 59.7688 15.9864C59.6565 15.6474 59.6164 15.2886 59.651 14.9332ZM63.6506 14.9332C63.6506 13.7619 63.1244 13.0769 62.201 13.0769C61.274 13.0769 60.7526 13.7619 60.7526 14.9332C60.7526 16.1139 61.2741 16.7935 62.201 16.7935C63.1244 16.7935 63.6506 16.1091 63.6506 14.9332H63.6506Z" fill="white"/>
<path d="M71.522 17.6373H70.4158L69.299 13.6576H69.2146L68.1025 17.6373H67.0068L65.5173 12.2338H66.599L67.5669 16.357H67.6466L68.7576 12.2338H69.7806L70.8916 16.357H70.9759L71.9392 12.2338H73.0056L71.522 17.6373Z" fill="white"/>
<path d="M74.2583 12.2338H75.2849V13.0922H75.3646C75.4997 12.7839 75.7277 12.5254 76.0168 12.3528C76.3058 12.1803 76.6415 12.1022 76.9771 12.1295C77.24 12.1097 77.504 12.1493 77.7495 12.2455C77.995 12.3416 78.2158 12.4917 78.3954 12.6847C78.575 12.8777 78.7089 13.1087 78.7871 13.3605C78.8654 13.6122 78.886 13.8784 78.8474 14.1392V17.6372H77.781V14.407C77.781 13.5387 77.4036 13.1068 76.6149 13.1068C76.4364 13.0985 76.2582 13.1289 76.0926 13.1959C75.9269 13.2629 75.7777 13.3649 75.6551 13.495C75.5326 13.625 75.4396 13.78 75.3826 13.9494C75.3255 14.1188 75.3058 14.2984 75.3247 14.4761V17.6373H74.2583L74.2583 12.2338Z" fill="white"/>
<path d="M80.5466 10.1244H81.613V17.6373H80.5466V10.1244Z" fill="white"/>
<path d="M83.0954 14.9331C83.0615 14.578 83.1021 14.2197 83.2147 13.8812C83.3274 13.5427 83.5095 13.2315 83.7495 12.9675C83.9894 12.7035 84.2819 12.4926 84.6081 12.3483C84.9344 12.204 85.2872 12.1294 85.6439 12.1294C86.0007 12.1294 86.3535 12.204 86.6797 12.3483C87.006 12.4926 87.2984 12.7035 87.5384 12.9675C87.7784 13.2315 87.9605 13.5427 88.0731 13.8812C88.1858 14.2197 88.2264 14.578 88.1925 14.9331C88.227 15.2886 88.1869 15.6474 88.0745 15.9864C87.9622 16.3255 87.7801 16.6372 87.5401 16.9017C87.3001 17.1662 87.0074 17.3776 86.6809 17.5222C86.3543 17.6668 86.0011 17.7416 85.6439 17.7416C85.2868 17.7416 84.9336 17.6668 84.607 17.5222C84.2804 17.3776 83.9878 17.1662 83.7477 16.9017C83.5077 16.6372 83.3257 16.3255 83.2134 15.9864C83.101 15.6474 83.0608 15.2886 83.0954 14.9331ZM87.095 14.9331C87.095 13.7619 86.5688 13.0769 85.6454 13.0769C84.7184 13.0769 84.197 13.7619 84.197 14.9332C84.197 16.1138 84.7185 16.7935 85.6454 16.7935C86.5688 16.7935 87.095 16.1091 87.095 14.9331H87.095Z" fill="white"/>
<path d="M89.3152 16.1092C89.3152 15.1365 90.0394 14.5758 91.3249 14.4961L92.7886 14.4117V13.9453C92.7886 13.3746 92.4113 13.0524 91.6824 13.0524C91.0871 13.0524 90.6746 13.2709 90.5562 13.653H89.5238C89.6328 12.7248 90.5058 12.1295 91.7316 12.1295C93.0863 12.1295 93.8503 12.8039 93.8503 13.9453V17.6373H92.8238V16.878H92.7394C92.5681 17.1503 92.3277 17.3724 92.0425 17.5215C91.7574 17.6705 91.4378 17.7412 91.1164 17.7264C90.8895 17.7499 90.6602 17.7257 90.4433 17.6553C90.2264 17.5849 90.0267 17.4698 89.857 17.3174C89.6873 17.165 89.5514 16.9788 89.4581 16.7707C89.3648 16.5626 89.3161 16.3373 89.3152 16.1092ZM92.7886 15.6475V15.1957L91.4691 15.2801C90.7249 15.3299 90.3874 15.583 90.3874 16.0594C90.3874 16.5457 90.8093 16.8287 91.3894 16.8287C91.5594 16.8459 91.7311 16.8288 91.8943 16.7783C92.0575 16.7277 92.2089 16.6449 92.3394 16.5347C92.47 16.4245 92.577 16.2892 92.6542 16.1367C92.7314 15.9843 92.7771 15.8179 92.7886 15.6475Z" fill="white"/>
<path d="M95.252 14.9332C95.252 13.2258 96.1297 12.1441 97.4949 12.1441C97.8326 12.1286 98.1678 12.2095 98.4612 12.3773C98.7546 12.5452 98.9942 12.7931 99.1519 13.0921H99.2316V10.1244H100.298V17.6373H99.2762V16.7836H99.1918C99.0219 17.0806 98.7739 17.3254 98.4748 17.4916C98.1757 17.6577 97.8369 17.7389 97.4949 17.7263C96.1203 17.7264 95.252 16.6447 95.252 14.9332ZM96.3536 14.9332C96.3536 16.0793 96.8938 16.7689 97.7973 16.7689C98.6961 16.7689 99.2516 16.0693 99.2516 14.9379C99.2516 13.8117 98.6903 13.1021 97.7973 13.1021C96.8996 13.1021 96.3535 13.7965 96.3535 14.9332H96.3536Z" fill="white"/>
<path d="M104.71 14.9332C104.676 14.5781 104.717 14.2198 104.829 13.8813C104.942 13.5428 105.124 13.2316 105.364 12.9676C105.604 12.7037 105.896 12.4927 106.223 12.3484C106.549 12.2041 106.902 12.1295 107.258 12.1295C107.615 12.1295 107.968 12.2041 108.294 12.3484C108.62 12.4927 108.913 12.7037 109.153 12.9676C109.393 13.2316 109.575 13.5428 109.687 13.8813C109.8 14.2198 109.841 14.5781 109.807 14.9332C109.841 15.2886 109.801 15.6474 109.689 15.9864C109.576 16.3255 109.394 16.6373 109.154 16.9018C108.914 17.1663 108.622 17.3776 108.295 17.5223C107.969 17.6669 107.615 17.7416 107.258 17.7416C106.901 17.7416 106.548 17.6669 106.221 17.5223C105.895 17.3776 105.602 17.1663 105.362 16.9018C105.122 16.6373 104.94 16.3255 104.828 15.9864C104.716 15.6474 104.675 15.2886 104.71 14.9332ZM108.71 14.9332C108.71 13.7619 108.183 13.0769 107.26 13.0769C106.333 13.0769 105.812 13.7619 105.812 14.9332C105.812 16.1139 106.333 16.7935 107.26 16.7935C108.183 16.7935 108.71 16.1091 108.71 14.9332Z" fill="white"/>
<path d="M111.237 12.2338H112.264V13.0922H112.344C112.479 12.7839 112.707 12.5254 112.996 12.3528C113.285 12.1803 113.621 12.1022 113.956 12.1295C114.219 12.1097 114.483 12.1493 114.729 12.2455C114.974 12.3416 115.195 12.4917 115.375 12.6847C115.554 12.8777 115.688 13.1087 115.766 13.3605C115.845 13.6122 115.865 13.8784 115.826 14.1392V17.6372H114.76V14.407C114.76 13.5387 114.383 13.1068 113.594 13.1068C113.416 13.0985 113.237 13.1289 113.072 13.1959C112.906 13.2629 112.757 13.3649 112.634 13.495C112.512 13.625 112.419 13.78 112.362 13.9494C112.305 14.1188 112.285 14.2984 112.304 14.4761V17.6373H111.237V12.2338Z" fill="white"/>
<path d="M121.852 10.8884V12.2583H123.023V13.1566H121.852V15.9351C121.852 16.5011 122.085 16.749 122.616 16.749C122.752 16.7485 122.888 16.7403 123.023 16.7244V17.6126C122.831 17.6469 122.637 17.6651 122.443 17.6671C121.257 17.6671 120.785 17.2499 120.785 16.2081V13.1565H119.927V12.2583H120.785V10.8884H121.852Z" fill="white"/>
<path d="M124.48 10.1244H125.537V13.1021H125.621C125.763 12.7909 125.997 12.531 126.292 12.3578C126.587 12.1846 126.928 12.1065 127.269 12.1342C127.53 12.1199 127.792 12.1636 128.034 12.262C128.277 12.3605 128.495 12.5113 128.673 12.7037C128.851 12.8961 128.984 13.1254 129.063 13.3751C129.142 13.6249 129.164 13.889 129.13 14.1486V17.6373H128.062V14.4117C128.062 13.5486 127.66 13.1115 126.907 13.1115C126.723 13.0965 126.539 13.1217 126.366 13.1853C126.194 13.249 126.037 13.3496 125.908 13.4801C125.778 13.6105 125.679 13.7678 125.616 13.9407C125.554 14.1137 125.53 14.2982 125.546 14.4814V17.6373H124.48L124.48 10.1244Z" fill="white"/>
<path d="M135.348 16.1783C135.203 16.6722 134.889 17.0993 134.461 17.3851C134.033 17.6709 133.518 17.7971 133.006 17.7416C132.65 17.751 132.296 17.6828 131.969 17.5418C131.642 17.4007 131.35 17.1902 131.113 16.9249C130.875 16.6595 130.698 16.3456 130.594 16.005C130.49 15.6645 130.461 15.3053 130.51 14.9525C130.463 14.5987 130.492 14.2388 130.596 13.8971C130.699 13.5555 130.875 13.2402 131.112 12.9725C131.348 12.7048 131.639 12.491 131.965 12.3456C132.291 12.2001 132.644 12.1264 133.002 12.1295C134.505 12.1295 135.412 13.1567 135.412 14.8535V15.2256H131.596V15.2854C131.58 15.4836 131.605 15.6832 131.67 15.8713C131.735 16.0594 131.838 16.2319 131.974 16.3776C132.109 16.5234 132.274 16.6392 132.456 16.7177C132.639 16.7962 132.837 16.8356 133.035 16.8334C133.291 16.864 133.549 16.818 133.778 16.7014C134.007 16.5847 134.196 16.4027 134.321 16.1783L135.348 16.1783ZM131.596 14.4369H134.326C134.339 14.2556 134.314 14.0734 134.253 13.9021C134.192 13.7309 134.096 13.5743 133.971 13.4425C133.845 13.3106 133.694 13.2065 133.526 13.1367C133.358 13.0668 133.177 13.0329 132.996 13.0371C132.811 13.0348 132.628 13.0694 132.457 13.139C132.286 13.2085 132.131 13.3115 132.001 13.442C131.87 13.5724 131.767 13.7277 131.698 13.8985C131.629 14.0694 131.594 14.2525 131.596 14.4369H131.596Z" fill="white"/>
</svg>
