<svg width="319" height="364" viewBox="0 0 319 364" fill="none" xmlns="http://www.w3.org/2000/svg">
<g opacity="0.2">
<path d="M219.982 275.581C259.182 286.381 301.649 313.414 317.982 325.581L317.982 69.5811C315.982 70.4144 307.782 69.981 290.982 61.5811C269.982 51.0811 249.982 -14.919 209.482 4.58105C168.982 24.081 188.982 55.581 100.982 61.581C12.982 67.581 -15.018 80.081 9.48195 104.081C33.982 128.081 104.982 168.081 110.982 206.581C116.982 245.081 170.982 262.081 219.982 275.581Z" stroke="#53B175"/>
<path d="M222.568 291.711C260.534 302.159 301.663 328.311 317.482 340.081L317.482 92.4266C315.545 93.2328 307.603 92.8136 291.332 84.6874C270.994 74.5297 251.623 10.6813 212.399 29.5456C173.174 48.4099 192.544 78.883 107.315 84.6874C22.0867 90.4918 -5.0316 102.584 18.6969 125.802C42.4253 149.019 111.189 187.715 117.001 224.96C122.812 262.205 175.111 278.651 222.568 291.711Z" stroke="#53B175"/>
<path d="M224.423 314.789C261.647 325.004 301.972 350.573 317.482 362.081L317.482 119.948C315.583 120.736 307.796 120.326 291.843 112.381C271.902 102.45 252.91 40.0246 214.452 58.4683C175.994 76.9121 194.986 106.706 111.423 112.381C27.8599 118.056 1.2716 129.879 24.5363 152.579C47.801 175.279 115.221 213.112 120.919 249.527C126.616 285.941 177.894 302.021 224.423 314.789Z" stroke="#53B175"/>
</g>
</svg>
