<svg width="18" height="19" viewBox="0 0 18 19" fill="none" xmlns="http://www.w3.org/2000/svg">
<path fill-rule="evenodd" clip-rule="evenodd" d="M9.00081 0.966675C6.68327 0.966675 6.39243 0.976808 5.48219 1.01823C4.57374 1.05983 3.95364 1.20366 3.41106 1.41468C2.84981 1.63264 2.37372 1.9242 1.8994 2.39869C1.42473 2.87301 1.13317 3.3491 0.914502 3.91017C0.702944 4.45293 0.558942 5.07321 0.518053 5.9813C0.477342 6.89154 0.466675 7.18256 0.466675 9.5001C0.466675 11.8176 0.476986 12.1076 0.518231 13.0178C0.560009 13.9263 0.703833 14.5464 0.914679 15.089C1.13282 15.6502 1.42437 16.1263 1.89887 16.6006C2.37301 17.0753 2.8491 17.3676 3.40999 17.5855C3.95293 17.7965 4.57321 17.9404 5.48148 17.982C6.39171 18.0234 6.68238 18.0335 8.99974 18.0335C11.3175 18.0335 11.6074 18.0234 12.5176 17.982C13.4261 17.9404 14.0469 17.7965 14.5898 17.5855C15.1509 17.3676 15.6263 17.0753 16.1004 16.6006C16.5751 16.1263 16.8667 15.6502 17.0853 15.0891C17.2951 14.5464 17.4391 13.9261 17.4818 13.018C17.5227 12.1078 17.5333 11.8176 17.5333 9.5001C17.5333 7.18256 17.5227 6.89171 17.4818 5.98148C17.4391 5.07303 17.2951 4.45293 17.0853 3.91035C16.8667 3.3491 16.5751 2.87301 16.1004 2.39869C15.6258 1.92402 15.1511 1.63246 14.5893 1.41468C14.0453 1.20366 13.4249 1.05983 12.5164 1.01823C11.6062 0.976808 11.3164 0.966675 8.99814 0.966675H9.00081ZM8.23525 2.50444C8.46245 2.50409 8.71597 2.50444 9.00077 2.50444C11.2792 2.50444 11.5492 2.51262 12.449 2.55351C13.281 2.59156 13.7326 2.73058 14.0334 2.84738C14.4316 3.00205 14.7155 3.18694 15.014 3.48561C15.3127 3.78428 15.4976 4.06873 15.6526 4.46695C15.7694 4.7674 15.9086 5.21896 15.9464 6.05097C15.9873 6.95054 15.9962 7.22076 15.9962 9.49812C15.9962 11.7755 15.9873 12.0457 15.9464 12.9453C15.9084 13.7773 15.7694 14.2288 15.6526 14.5293C15.4979 14.9275 15.3127 15.2111 15.014 15.5096C14.7153 15.8082 14.4318 15.9931 14.0334 16.1478C13.7329 16.2651 13.281 16.4038 12.449 16.4418C11.5494 16.4827 11.2792 16.4916 9.00077 16.4916C6.72217 16.4916 6.45212 16.4827 5.55256 16.4418C4.72055 16.4034 4.26899 16.2644 3.96801 16.1476C3.56978 15.9929 3.28533 15.8081 2.98666 15.5094C2.68799 15.2107 2.5031 14.927 2.34808 14.5286C2.23128 14.2281 2.09208 13.7766 2.05421 12.9446C2.01332 12.045 2.00514 11.7748 2.00514 9.49598C2.00514 7.2172 2.01332 6.9484 2.05421 6.04884C2.09226 5.21683 2.23128 4.76527 2.34808 4.46447C2.50275 4.06624 2.68799 3.78179 2.98666 3.48312C3.28533 3.18445 3.56978 2.99956 3.96801 2.84454C4.26881 2.7272 4.72055 2.58853 5.55256 2.55031C6.33977 2.51476 6.64484 2.50409 8.23525 2.50231V2.50444ZM13.5558 3.92135C12.9905 3.92135 12.5318 4.37949 12.5318 4.94501C12.5318 5.51035 12.9905 5.96902 13.5558 5.96902C14.1212 5.96902 14.5799 5.51035 14.5799 4.94501C14.5799 4.37967 14.1212 3.92135 13.5558 3.92135ZM9.00082 5.11781C6.58071 5.11781 4.61855 7.07996 4.61855 9.50007C4.61855 11.9202 6.58071 13.8815 9.00082 13.8815C11.4209 13.8815 13.3824 11.9202 13.3824 9.50007C13.3824 7.07996 11.4209 5.11781 9.00082 5.11781ZM9.00079 6.6556C10.5717 6.6556 11.8453 7.92903 11.8453 9.50007C11.8453 11.0709 10.5717 12.3445 9.00079 12.3445C7.42975 12.3445 6.15632 11.0709 6.15632 9.50007C6.15632 7.92903 7.42975 6.6556 9.00079 6.6556Z" fill="white"/>
</svg>
