<svg width="18" height="15" viewBox="0 0 18 15"  xmlns="http://www.w3.org/2000/svg">
<path d="M9.79052 13.9039L9.78891 13.9054C9.34657 14.307 8.66435 14.3068 8.22208 13.8994L8.21968 13.8972L8.12801 13.8139L8.12713 13.8131C5.92916 11.8245 4.15489 10.216 2.93708 8.70639C1.72655 7.20587 1.11802 5.86512 1.16638 4.41775C1.21109 3.15487 1.85928 1.94611 2.89807 1.23884L2.89834 1.23866C4.85637 -0.0963609 7.29325 0.514262 8.61986 2.067L9.00001 2.51195L9.38015 2.067C10.7078 0.513047 13.1441 -0.103445 15.1006 1.23793L15.1019 1.23884C16.1409 1.94619 16.7891 3.15514 16.8336 4.41818L16.8337 4.41857C16.8859 5.86522 16.2779 7.20555 15.066 8.70858C13.851 10.2153 12.0826 11.8221 9.89461 13.81L9.87386 13.8289L9.87211 13.8305L9.79052 13.9039Z" />
</svg>
