<svg width="15" height="14" viewBox="0 0 15 14" fill="none" xmlns="http://www.w3.org/2000/svg">
<g clip-path="url(#clip0_1_1566)">
<path d="M7.68946 0C4.77487 0 2.41211 2.36275 2.41211 5.27735C2.41211 6.25206 2.60289 7.25878 3.15039 7.98438L7.68946 14L12.2285 7.98438C12.7258 7.32533 12.9668 6.16022 12.9668 5.27735C12.9668 2.36275 10.604 0 7.68946 0ZM7.68946 3.05652C8.91581 3.05652 9.91028 4.05099 9.91028 5.27734C9.91028 6.5037 8.91581 7.49817 7.68946 7.49817C6.4631 7.49817 5.46864 6.5037 5.46864 5.27735C5.46864 4.05099 6.4631 3.05652 7.68946 3.05652Z" fill="#377DFF"/>
</g>
<defs>
<clipPath id="clip0_1_1566">
<rect width="14" height="14" fill="white" transform="translate(0.689453)"/>
</clipPath>
</defs>
</svg>
