<svg width="29" height="29" viewBox="0 0 29 29" fill="none" xmlns="http://www.w3.org/2000/svg">
<path d="M28.3622 14.8201C28.4747 14.772 28.5705 14.6918 28.6379 14.5897C28.7053 14.4876 28.7412 14.3679 28.7412 14.2456C28.7412 14.1233 28.7053 14.0036 28.6379 13.9015C28.5705 13.7993 28.4747 13.7192 28.3622 13.6711L10.3611 5.95653L10.3602 5.95565L9.80156 5.71523C9.69571 5.66975 9.57934 5.65441 9.46532 5.6709C9.35129 5.6874 9.24405 5.73509 9.15543 5.80872C9.06681 5.88234 9.00026 5.97902 8.96314 6.08809C8.92602 6.19716 8.91977 6.31436 8.94508 6.42676L9.07766 7.01896L9.07677 7.02161L10.6828 14.2456L9.07677 21.4696L9.07677 21.4731L8.94419 22.0653C8.91929 22.1776 8.92584 22.2945 8.96314 22.4033C9.00043 22.5121 9.06702 22.6085 9.15557 22.6819C9.24411 22.7553 9.35119 22.8028 9.46501 22.8192C9.57883 22.8357 9.69498 22.8204 9.80067 22.7751L28.3622 14.8201ZM25.0715 14.8705L11.8239 14.8705L11.9326 14.3817C11.9526 14.2921 11.9526 14.1991 11.9326 14.1095L11.8239 13.6207L25.0715 13.6207L26.5291 14.2456L25.0724 14.8714L25.0715 14.8705Z" fill="#53B175"/>
</svg>
