<svg width="18" height="18" viewBox="0 0 18 18"  xmlns="http://www.w3.org/2000/svg">
<path d="M3.9375 15.1875C3.9375 16.1179 4.69462 16.875 5.625 16.875C6.55538 16.875 7.3125 16.1179 7.3125 15.1875C7.3125 14.2571 6.55538 13.5 5.625 13.5C4.69462 13.5 3.9375 14.2571 3.9375 15.1875ZM6.1875 15.1875C6.1875 15.4974 5.93494 15.75 5.625 15.75C5.31506 15.75 5.0625 15.4974 5.0625 15.1875C5.0625 14.8776 5.31506 14.625 5.625 14.625C5.93494 14.625 6.1875 14.8776 6.1875 15.1875Z" />
<path d="M14.0625 15.1875C14.0625 14.2571 13.3054 13.5 12.375 13.5C11.4446 13.5 10.6875 14.2571 10.6875 15.1875C10.6875 16.1179 11.4446 16.875 12.375 16.875C13.3054 16.875 14.0625 16.1179 14.0625 15.1875ZM11.8125 15.1875C11.8125 14.8776 12.0651 14.625 12.375 14.625C12.6849 14.625 12.9375 14.8776 12.9375 15.1875C12.9375 15.4974 12.6849 15.75 12.375 15.75C12.0651 15.75 11.8125 15.4974 11.8125 15.1875Z"/>
<path d="M2.30625 1.6875C2.376 2.35181 3.15225 9.72506 3.27206 10.8641C3.36263 11.7253 4.08431 12.375 4.95056 12.375H13.716C14.5063 12.375 15.2004 11.8136 15.3664 11.0408L16.7175 4.73569C16.7889 4.40156 16.7068 4.05787 16.4919 3.79294C16.2771 3.52744 15.9581 3.375 15.6167 3.375H3.61519L3.37219 1.0665C3.34181 0.779625 3.1005 0.5625 2.8125 0.5625H1.125C0.8145 0.5625 0.5625 0.8145 0.5625 1.125C0.5625 1.4355 0.8145 1.6875 1.125 1.6875H2.30625ZM15.6167 4.5L14.2661 10.8051C14.2104 11.0627 13.9793 11.25 13.7154 11.25H4.95056C4.66144 11.25 4.42125 11.0334 4.39088 10.7466L3.73331 4.5H15.6167Z" />
</svg>
