<svg width="34" height="26" viewBox="0 0 34 26" fill="none" xmlns="http://www.w3.org/2000/svg">
<path d="M32.438 17.875H31.626V12.386C31.6247 11.7401 31.3672 11.1212 30.91 10.665L25.836 5.591C25.3798 5.1338 24.7609 4.87629 24.115 4.875H21.875V2.438C21.875 1.79158 21.6183 1.17161 21.1613 0.714427C20.7043 0.257242 20.0844 0.000265145 19.438 0L3.188 0C2.5414 0 1.92129 0.25686 1.46407 0.714074C1.00686 1.17129 0.75 1.7914 0.75 2.438L0.75 18.688C0.75 19.3346 1.00686 19.9547 1.46407 20.4119C1.92129 20.8691 2.5414 21.126 3.188 21.126H4C4 22.4189 4.51361 23.6589 5.42785 24.5731C6.34209 25.4874 7.58207 26.001 8.875 26.001C10.1679 26.001 11.4079 25.4874 12.3221 24.5731C13.2364 23.6589 13.75 22.4189 13.75 21.126H20.25C20.25 22.4189 20.7636 23.6589 21.6779 24.5731C22.5921 25.4874 23.8321 26.001 25.125 26.001C26.4179 26.001 27.6579 25.4874 28.5721 24.5731C29.4864 23.6589 30 22.4189 30 21.126H32.438C32.6533 21.1255 32.8596 21.0398 33.0119 20.8876C33.1643 20.7355 33.2502 20.5293 33.251 20.314V18.688C33.2505 18.4725 33.1646 18.2661 33.0123 18.1137C32.8599 17.9614 32.6535 17.8755 32.438 17.875ZM8.875 23.563C8.39277 23.563 7.92136 23.42 7.52042 23.1521C7.11947 22.8841 6.80698 22.5033 6.62249 22.0578C6.43799 21.6122 6.38977 21.122 6.48392 20.649C6.57807 20.176 6.81037 19.7416 7.15143 19.4007C7.49249 19.0598 7.92699 18.8277 8.39998 18.7337C8.87297 18.6398 9.36321 18.6882 9.80868 18.8729C10.2541 19.0575 10.6348 19.3702 10.9026 19.7712C11.1704 20.1723 11.3132 20.6438 11.313 21.126C11.3127 21.7724 11.0558 22.3923 10.5986 22.8493C10.1414 23.3063 9.52142 23.563 8.875 23.563ZM25.125 23.563C24.6428 23.563 24.1714 23.42 23.7704 23.1521C23.3695 22.8841 23.057 22.5033 22.8725 22.0578C22.688 21.6122 22.6398 21.122 22.7339 20.649C22.8281 20.176 23.0604 19.7416 23.4014 19.4007C23.7425 19.0598 24.177 18.8277 24.65 18.7337C25.123 18.6398 25.6132 18.6882 26.0587 18.8729C26.5041 19.0575 26.8848 19.3702 27.1526 19.7712C27.4204 20.1723 27.5632 20.6438 27.563 21.126C27.5627 21.7724 27.3058 22.3923 26.8486 22.8493C26.3914 23.3063 25.7714 23.563 25.125 23.563ZM29.188 13H21.875V7.313H24.114L29.187 12.386L29.188 13Z" fill="#53B175"/>
</svg>
