<svg width="7" height="12" viewBox="0 0 7 12" fill="none" xmlns="http://www.w3.org/2000/svg">
<path d="M1.47503 0.16664C1.59952 0.166216 1.72253 0.193693 1.83501 0.24705C1.9475 0.300407 2.04659 0.37829 2.12503 0.474973L6.15003 5.47497C6.27259 5.62408 6.3396 5.81112 6.3396 6.00414C6.3396 6.19716 6.27259 6.3842 6.15003 6.53331L1.98336 11.5333C1.84191 11.7035 1.63865 11.8105 1.4183 11.8308C1.19794 11.8511 0.978542 11.7831 0.808362 11.6416C0.638181 11.5002 0.531161 11.2969 0.510845 11.0766C0.490528 10.8562 0.558579 10.6368 0.700028 10.4666L4.42503 5.99997L0.825028 1.53331C0.723125 1.41099 0.658394 1.26203 0.638495 1.10408C0.618595 0.946121 0.644359 0.785767 0.712738 0.641994C0.781118 0.498221 0.889252 0.377044 1.02434 0.292802C1.15944 0.20856 1.31583 0.16478 1.47503 0.16664Z" fill="#BDBDBD"/>
</svg>
