<svg width="30" height="30" viewBox="0 0 30 30" fill="none" xmlns="http://www.w3.org/2000/svg">
<circle cx="15" cy="15" r="15" fill="#F0F0F0"/>
<path fill-rule="evenodd" clip-rule="evenodd" d="M19.474 18.5199C19.4806 18.3427 19.4149 18.1724 19.2968 18.0429L16.6645 15.3037L16.0475 14.67L19.2968 11.297C19.3624 11.2289 19.4149 11.1539 19.4478 11.0721C19.4806 10.9904 19.5003 10.9018 19.5003 10.8132C19.5003 10.7178 19.4871 10.6292 19.4478 10.5475C19.4149 10.4657 19.369 10.3839 19.3099 10.3226C19.2443 10.2613 19.1721 10.2068 19.0933 10.1727C19.0145 10.1386 18.9226 10.125 18.8373 10.125C18.7519 10.125 18.6666 10.1454 18.5813 10.1795C18.5025 10.2136 18.4303 10.2681 18.3712 10.3294L15.01 13.8186L11.6291 10.309C11.5043 10.1864 11.3402 10.1251 11.1696 10.1251C10.9989 10.1251 10.8348 10.2 10.7166 10.3227C10.5919 10.4521 10.5263 10.6157 10.5263 10.7928C10.5197 10.97 10.5853 11.1404 10.7035 11.2698L13.3358 14.0091L13.9528 14.6428L10.7035 18.0157C10.6378 18.0838 10.5853 18.1588 10.5525 18.2406C10.5197 18.3223 10.5 18.4109 10.5 18.4995C10.5 18.5949 10.5131 18.6835 10.5525 18.7652C10.5853 18.847 10.6313 18.9288 10.6904 18.9901C10.756 19.0514 10.8282 19.1059 10.907 19.14C10.9858 19.1741 11.0777 19.1877 11.163 19.1877C11.2483 19.1877 11.3337 19.1673 11.419 19.1332C11.4978 19.0991 11.57 19.0446 11.6291 18.9833L14.9903 15.4941L18.3712 19.0037C18.4959 19.1263 18.66 19.1876 18.8307 19.1876C19.0014 19.1876 19.1655 19.1127 19.2837 18.99C19.4084 18.8606 19.474 18.697 19.474 18.5199Z" fill="#181725"/>
</svg>
