<svg width="18" height="13" viewBox="0 0 18 13" fill="none" xmlns="http://www.w3.org/2000/svg">
<path fill-rule="evenodd" clip-rule="evenodd" d="M15.6677 0.99952C16.4021 1.20103 16.9804 1.79478 17.1767 2.54878C17.5333 3.91533 17.5333 6.76663 17.5333 6.76663C17.5333 6.76663 17.5333 9.61784 17.1767 10.9845C16.9804 11.7385 16.4021 12.3322 15.6677 12.5338C14.3369 12.9 9.00001 12.9 9.00001 12.9C9.00001 12.9 3.66309 12.9 2.33218 12.5338C1.59783 12.3322 1.0195 11.7385 0.823232 10.9845C0.466675 9.61784 0.466675 6.76663 0.466675 6.76663C0.466675 6.76663 0.466675 3.91533 0.823232 2.54878C1.0195 1.79478 1.59783 1.20103 2.33218 0.99952C3.66309 0.633301 9.00001 0.633301 9.00001 0.633301C9.00001 0.633301 14.3369 0.633301 15.6677 0.99952ZM7.40002 4.36658V9.69991L11.6667 7.03335L7.40002 4.36658Z" fill="white"/>
</svg>
